<?xml version="1.0" standalone="no"?>
<!DOCTYPE svg PUBLIC "-//W3C//DTD SVG 20010904//EN"
 "http://www.w3.org/TR/2001/REC-SVG-20010904/DTD/svg10.dtd">
<svg version="1.0" xmlns="http://www.w3.org/2000/svg"
 width="214.000000pt" height="212.000000pt" viewBox="0 0 214.000000 212.000000"
 preserveAspectRatio="xMidYMid meet">

<g transform="translate(0.000000,212.000000) scale(0.100000,-0.100000)"
fill="#000000" stroke="none">
<path d="M885 2060 c-66 -10 -138 -31 -149 -41 -6 -5 -16 -9 -24 -9 -54 0
-247 -118 -348 -213 -136 -126 -224 -277 -291 -492 -26 -87 -26 -393 0 -480
34 -112 84 -235 109 -270 137 -188 150 -204 228 -265 25 -19 47 -37 50 -40 3
-3 23 -17 45 -30 22 -13 42 -26 45 -29 9 -10 111 -56 175 -79 61 -22 142 -41
195 -47 30 -4 72 -9 93 -12 79 -11 299 25 384 63 17 8 35 14 40 14 12 0 116
53 131 68 7 6 20 12 28 12 8 0 14 3 14 8 0 4 18 18 40 32 22 13 40 28 40 32 0
4 5 8 10 8 6 0 37 27 70 60 33 33 60 65 60 70 0 6 4 10 8 10 4 0 19 18 32 40
14 22 28 40 33 40 4 0 7 6 7 14 0 8 6 21 13 28 18 18 77 141 77 160 0 8 3 18
7 22 18 18 40 121 59 284 10 81 -25 314 -57 374 -5 10 -9 23 -9 30 0 15 -61
139 -77 156 -7 7 -13 18 -13 23 0 5 -6 17 -12 25 -7 8 -18 20 -23 27 -6 7 -26
32 -45 57 -47 61 -81 92 -175 161 -44 33 -84 63 -90 67 -5 4 -35 19 -65 33
-48 23 -91 39 -215 80 -39 13 -336 20 -400 9z m315 -30 c125 -25 156 -32 164
-41 6 -5 17 -9 25 -9 22 0 138 -58 211 -106 79 -52 182 -149 237 -224 51 -68
133 -223 133 -250 0 -11 4 -20 9 -20 5 0 12 -21 16 -47 4 -27 11 -53 16 -59
15 -18 22 -260 10 -344 -13 -98 -33 -180 -43 -180 -4 0 -8 -9 -8 -19 0 -33
-95 -211 -145 -270 -83 -101 -219 -212 -322 -265 -18 -9 -46 -23 -62 -31 -16
-8 -39 -15 -50 -15 -12 0 -21 -4 -21 -9 0 -5 -21 -12 -47 -16 -27 -4 -54 -12
-62 -18 -20 -17 -392 -17 -412 0 -8 6 -35 14 -61 18 -27 4 -48 11 -48 16 0 5
-9 9 -20 9 -28 0 -183 82 -250 133 -64 48 -147 131 -201 202 -43 57 -129 220
-129 245 0 9 -4 20 -9 26 -10 9 -24 69 -42 179 -12 68 -5 284 9 330 6 17 18
57 28 90 16 56 71 184 83 195 10 9 31 44 37 63 4 9 10 17 14 17 5 0 11 8 15
19 7 24 172 189 196 196 11 4 19 11 19 16 0 5 7 9 15 9 8 0 15 4 15 9 0 5 10
13 23 17 12 4 24 10 27 14 12 18 178 84 255 102 118 27 287 35 375 18z"/>
<path d="M791 1068 l-1 -478 90 55 c50 30 93 55 95 55 4 0 120 68 155 90 8 6
22 13 30 17 8 4 43 24 78 45 34 21 64 38 67 38 3 0 33 17 67 38 35 21 90 54
123 72 114 63 116 66 58 96 -21 10 -40 21 -43 24 -5 5 -36 23 -100 57 -19 10
-40 24 -48 31 -7 6 -20 12 -28 12 -8 0 -14 3 -14 8 0 4 -10 12 -23 18 -33 15
-111 58 -117 64 -3 3 -21 13 -40 23 -68 36 -95 52 -108 65 -7 6 -19 12 -27 12
-7 0 -15 3 -17 8 -2 4 -16 14 -33 23 -77 41 -100 55 -113 67 -7 6 -19 12 -27
12 -7 0 -16 6 -18 13 -3 6 -6 -203 -6 -465z m139 351 c3 -3 12 -9 20 -13 8 -4
24 -12 35 -19 11 -7 47 -28 80 -47 33 -19 69 -40 80 -47 11 -7 27 -15 35 -19
8 -4 43 -25 78 -46 34 -21 64 -38 67 -38 2 0 45 -25 95 -55 50 -30 95 -55 100
-55 6 0 10 -7 10 -15 0 -8 -7 -15 -15 -15 -8 0 -15 -4 -15 -10 0 -5 -6 -10
-14 -10 -8 0 -21 -6 -28 -12 -11 -11 -39 -27 -129 -73 -10 -5 -19 -13 -19 -17
0 -5 -6 -8 -14 -8 -8 0 -21 -6 -28 -12 -7 -7 -31 -22 -53 -33 -22 -11 -46 -26
-53 -32 -7 -7 -20 -13 -28 -13 -8 0 -14 -4 -14 -8 0 -4 -12 -13 -27 -19 -37
-15 -104 -55 -121 -71 -7 -6 -20 -12 -28 -12 -8 0 -14 -4 -14 -10 0 -5 -6 -10
-13 -10 -7 0 -29 -11 -49 -25 -20 -14 -39 -25 -42 -25 -4 0 -6 187 -6 416 l0
415 53 -28 c28 -15 54 -31 57 -34z"/>
</g>
</svg>
